<svg height="512" viewBox="0 0 512 512" width="512" xmlns="http://www.w3.org/2000/svg"><g><g><g><g><path d="m432 296.04v191.96h-352v-191.96l176-175.19z" fill="#e0e0e2"/><path d="m129.18 198.32-91.6 92.04a8 8 0 0 0 5.67 13.64h25.45a8.012 8.012 0 0 0 5.64-2.33l5.66-5.63 176-175.19 176 175.19 5.66 5.63a8.012 8.012 0 0 0 5.64 2.33h25.45a8 8 0 0 0 5.67-13.64l-42.42-42.63-48-48.23-104-104.5-18.46-17.7a8.023 8.023 0 0 0 -11.08 0l-18.46 17.7-33.6 33.76" fill="#ff9811"/><path d="m384 199.5v-55.5h48v103.73" fill="#a0815c"/><path d="m376 120h64v24h-64z" fill="#ff9811"/></g><path d="m224 208h64v64h-64z" fill="#83d8f4"/><path d="m208 328h96v160h-96z" fill="#a0815c"/><path d="m336 328h64v80h-64z" fill="#83d8f4"/><path d="m328 408h80v24h-80z" fill="#ff9811"/><path d="m112 328h64v80h-64z" fill="#83d8f4"/><path d="m104 408h80v24h-80z" fill="#ff9811"/></g><circle cx="112" cy="112" fill="#91cc04" r="88"/></g><g><path d="m480.09 284.72-40.09-40.29v-92.43a8 8 0 0 0 8-8v-24a8 8 0 0 0 -8-8h-64a8 8 0 0 0 -8 8v24a8 8 0 0 0 8 8v28.12l-90.33-90.76a1.593 1.593 0 0 0 -.13-.13l-18.47-17.72a16.013 16.013 0 0 0 -22.15.02l-18.46 17.7a1.593 1.593 0 0 0 -.13.13l-18.42 18.51a96 96 0 1 0 -99.57 100.05l-76.43 76.79a16 16 0 0 0 11.34 27.29h25.45a15.731 15.731 0 0 0 3.3-.35v168.35h-56a8 8 0 0 0 0 16h448a8 8 0 0 0 0-16h-24v-168.35a15.731 15.731 0 0 0 3.3.35h25.45a15.993 15.993 0 0 0 11.34-27.28zm-96.09-156.72h48v8h-48zm40 24v76.36l-32-32.16v-44.2zm-392-40a80 80 0 1 1 80 80 80.093 80.093 0 0 1 -80-80zm264 368h-80v-144h80zm128 0h-112v-152a8 8 0 0 0 -8-8h-96a8 8 0 0 0 -8 8v152h-112v-180.64l168-167.22 168 167.22zm19.3-184-5.3-5.28a7.68 7.68 0 0 0 -.76-.75l-175.6-174.79a7.985 7.985 0 0 0 -11.28 0l-175.56 174.75a6.508 6.508 0 0 0 -.83.83l-5.27 5.24h-25.44l89.92-90.36a96.3 96.3 0 0 0 72.56-72.91l31.86-32.02 18.4-17.64 18.4 17.64 194.34 195.29z"/><path d="m496 480h-8a8 8 0 0 0 0 16h8a8 8 0 0 0 0-16z"/><path d="m224 280h64a8 8 0 0 0 8-8v-64a8 8 0 0 0 -8-8h-64a8 8 0 0 0 -8 8v64a8 8 0 0 0 8 8zm8-32h16v16h-16zm32 16v-16h16v16zm16-32h-16v-16h16zm-32-16v16h-16v-16z"/><path d="m280 392a8 8 0 0 0 -8 8v32a8 8 0 0 0 16 0v-32a8 8 0 0 0 -8-8z"/><path d="m328 440h80a8 8 0 0 0 8-8v-24a8 8 0 0 0 -8-8v-72a8 8 0 0 0 -8-8h-64a8 8 0 0 0 -8 8v72a8 8 0 0 0 -8 8v24a8 8 0 0 0 8 8zm72-16h-64v-8h64zm-56-88h48v64h-48z"/><path d="m184 400v-72a8 8 0 0 0 -8-8h-64a8 8 0 0 0 -8 8v72a8 8 0 0 0 -8 8v24a8 8 0 0 0 8 8h80a8 8 0 0 0 8-8v-24a8 8 0 0 0 -8-8zm-64-64h48v64h-48zm56 88h-64v-8h64z"/><path d="m166.074 90.794a8 8 0 0 0 -11.28-.868l-51.4 44.055-18.956-12.637a8 8 0 1 0 -8.876 13.312l24 16a8 8 0 0 0 9.644-.582l56-48a8 8 0 0 0 .868-11.28z"/></g></g></svg>